<?xml version="1.0" encoding="utf-8"?>
<!-- Generator: Adobe Illustrator 20.0.0, SVG Export Plug-In . SVG Version: 6.00 Build 0)  -->
<svg version="1.1" xmlns="http://www.w3.org/2000/svg" xmlns:xlink="http://www.w3.org/1999/xlink" x="0px" y="0px"
	 viewBox="0 0 395.7 56.1" style="enable-background:new 0 0 395.7 56.1;" xml:space="preserve">
<style type="text/css">
	.st0{display:none;}
	.st1{display:inline;}
	.st2{clip-path:url(#SVGID_2_);}
	.st3{clip-path:url(#SVGID_4_);}
	.st4{clip-path:url(#SVGID_6_);fill:#FFFFFF;}
	.st5{enable-background:new    ;}
	.st6{clip-path:url(#SVGID_8_);fill:#FFFFFF;}
	.st7{display:inline;fill:#231F20;}
	.st8{display:inline;filter:url(#Adobe_OpacityMaskFilter);}
	.st9{fill:#FFFFFF;}
	.st10{display:inline;mask:url(#SVGID_9_);}
	.st11{fill:#9C91C2;}
	.st12{display:inline;fill:url(#SVGID_10_);}
	.st13{filter:url(#Adobe_OpacityMaskFilter_1_);}
	.st14{fill:#515254;}
	.st15{fill:#797A7D;}
	.st16{fill:#95979A;}
	.st17{fill:#BCBEC0;}
	.st18{fill:#DCDDDE;}
	.st19{mask:url(#SVGID_11_);}
</style>
<g id="Layer_1" class="st0">
	<g class="st1">
		<defs>
			<rect id="SVGID_1_" x="0" y="0" width="395.7" height="56.1"/>
		</defs>
		<clipPath id="SVGID_2_">
			<use xlink:href="#SVGID_1_"  style="overflow:visible;"/>
		</clipPath>
		<g class="st2">
			<defs>
				<rect id="SVGID_3_" x="0" y="0" width="395.7" height="56.1"/>
			</defs>
			<clipPath id="SVGID_4_">
				<use xlink:href="#SVGID_3_"  style="overflow:visible;"/>
			</clipPath>
			<g class="st3">
				<g>
					<defs>
						<rect id="SVGID_5_" x="0" y="0" width="395.7" height="56.1"/>
					</defs>
					<clipPath id="SVGID_6_">
						<use xlink:href="#SVGID_5_"  style="overflow:visible;"/>
					</clipPath>
					<path class="st4" d="M33.5,45.6c-2,0.8-4.3,1.2-6.9,1.2c-3.6,0-6.7-0.8-9.4-2.4c-2.7-1.6-4.8-3.8-6.3-6.7
						c-1.5-2.9-2.2-6.1-2.2-9.7c0-3.4,0.8-6.5,2.4-9.4c1.6-2.9,3.7-5.1,6.4-6.8c2.7-1.7,5.5-2.5,8.6-2.5c4,0,8,1.4,11.9,4.1l3.3-7.9
						c-2-1.2-4.3-2.3-7-3.1c-2.6-0.8-5.5-1.2-8.5-1.2c-5,0-9.4,1.2-13.4,3.5c-3.9,2.3-7,5.6-9.1,9.7C1.1,18.5,0,23.2,0,28.5
						c0,4.8,1.1,9.2,3.3,13.2c2.2,4,5.3,7.2,9.4,9.6c4.1,2.4,8.8,3.6,14.2,3.6c3.2,0,6.2-0.5,8.9-1.5c2.7-1,4.8-2.1,6.4-3.2
						l-3.5-7.5C37.2,43.8,35.5,44.8,33.5,45.6"/>
					<path class="st4" d="M97.4,4.9c-4.1-2.4-8.6-3.7-13.4-3.7c-4.9,0-9.3,1.2-13.4,3.7c-4.1,2.5-7.4,5.7-9.8,9.8
						c-2.4,4.1-3.6,8.6-3.6,13.4c0,4.9,1.2,9.4,3.6,13.5c2.4,4.1,5.7,7.3,9.8,9.7c4.1,2.4,8.6,3.6,13.4,3.6c4.8,0,9.3-1.2,13.4-3.6
						c4.1-2.4,7.4-5.6,9.8-9.7c2.4-4.1,3.6-8.5,3.6-13.4c0-4.8-1.2-9.2-3.7-13.3C104.8,10.6,101.5,7.3,97.4,4.9 M99.9,37.5
						c-1.6,2.9-3.8,5.1-6.5,6.8c-2.7,1.7-5.8,2.5-9.1,2.5c-3.4,0-6.4-0.8-9.3-2.5c-2.8-1.7-5-3.9-6.7-6.8c-1.6-2.8-2.4-6-2.4-9.4
						c0-3.4,0.8-6.6,2.4-9.4c1.6-2.9,3.8-5.2,6.6-6.8c2.8-1.7,5.8-2.5,9.2-2.5c3.3,0,6.4,0.8,9.1,2.5c2.8,1.7,5,4,6.6,6.8
						c1.6,2.9,2.4,6,2.4,9.4C102.3,31.5,101.5,34.6,99.9,37.5"/>
					<polygon class="st4" points="167.4,37.1 129.7,0 129.3,0 129.3,54.2 137.8,54.2 137.6,19.5 175.4,56.1 175.6,56.1 175.6,1.8 
						167.3,1.8 					"/>
					<polygon class="st4" points="194.6,9.9 207.7,9.9 207.7,54.2 216.1,54.2 216.1,9.9 229.6,9.9 229.6,1.8 194.6,1.8 					"/>
					<polygon class="st4" points="256.9,31.9 280.4,31.9 280.4,23.8 256.9,23.8 256.9,9.9 283.3,9.9 283.3,1.8 248.5,1.8 
						248.5,54.2 284.3,54.2 284.3,46.2 256.9,46.2 					"/>
					<polygon class="st4" points="345,1.8 334.9,1.8 323.8,20.7 311.5,1.8 300.8,1.8 317.3,27.2 300.1,54.2 310.4,54.2 322,34.4 
						334.9,54.2 345.7,54.2 328.4,27.7 					"/>
					<polygon class="st4" points="360.6,1.8 360.6,9.9 373.8,9.9 373.8,54.2 382.1,54.2 382.1,9.9 395.7,9.9 395.7,1.8 					"/>
				</g>
			</g>
			<g class="st3">
				<rect x="0" y="0" width="395.7" height="56.1"/>
				<g class="st5">
					<g>
						<defs>
							<rect id="SVGID_7_" x="0" y="0" width="395.7" height="56.1"/>
						</defs>
						<clipPath id="SVGID_8_">
							<use xlink:href="#SVGID_7_"  style="overflow:visible;"/>
						</clipPath>
						<rect x="-77.7" y="53.7" class="st6" width="531" height="0.5"/>
						<rect x="-77.7" y="2.7" class="st6" width="531" height="0.5"/>
						<rect x="-77.7" y="9.1" class="st6" width="531" height="0.5"/>
						<rect x="-77.7" y="15.4" class="st6" width="531" height="0.5"/>
						<rect x="-77.7" y="21.8" class="st6" width="531" height="0.5"/>
						<rect x="-77.7" y="28.2" class="st6" width="531" height="0.5"/>
						<rect x="-77.7" y="34.6" class="st6" width="531" height="0.5"/>
						<rect x="-77.7" y="40.9" class="st6" width="531" height="0.5"/>
						<rect x="-77.7" y="47.3" class="st6" width="531" height="0.5"/>
					</g>
				</g>
			</g>
		</g>
	</g>
</g>
<g id="Layer_2" class="st0">
	<rect x="-211.6" y="-168.1" class="st7" width="891.1" height="507.1"/>
	<defs>
		<filter id="Adobe_OpacityMaskFilter" filterUnits="userSpaceOnUse" x="0" y="0" width="395.7" height="56.1">
			<feColorMatrix  type="matrix" values="1 0 0 0 0  0 1 0 0 0  0 0 1 0 0  0 0 0 1 0"/>
		</filter>
	</defs>
	<mask maskUnits="userSpaceOnUse" x="0" y="0" width="395.7" height="56.1" id="SVGID_9_" class="st1">
		<g style="filter:url(#Adobe_OpacityMaskFilter);">
			<g>
				<rect x="-77.7" y="53.2" class="st9" width="531" height="0.5"/>
				<rect x="-77.7" y="2.2" class="st9" width="531" height="0.5"/>
				<rect x="-77.7" y="8.6" class="st9" width="531" height="0.5"/>
				<rect x="-77.7" y="15" class="st9" width="531" height="0.5"/>
				<rect x="-77.7" y="21.4" class="st9" width="531" height="0.5"/>
				<rect x="-77.7" y="27.7" class="st9" width="531" height="0.5"/>
				<rect x="-77.7" y="34.1" class="st9" width="531" height="0.5"/>
				<rect x="-77.7" y="40.5" class="st9" width="531" height="0.5"/>
				<rect x="-77.7" y="46.9" class="st9" width="531" height="0.5"/>
			</g>
		</g>
	</mask>
	<g class="st10">
		<path class="st11" d="M95.1,4.9c-4.1-2.4-8.6-3.7-13.4-3.7c-4.9,0-9.3,1.2-13.4,3.7c-4.1,2.5-7.4,5.7-9.8,9.8
			c-2.4,4.1-3.6,8.6-3.6,13.4c0,4.9,1.2,9.4,3.6,13.5c2.4,4.1,5.7,7.3,9.8,9.7c4.1,2.4,8.6,3.6,13.4,3.6c4.8,0,9.3-1.2,13.4-3.6
			c4.1-2.4,7.4-5.6,9.8-9.7c2.4-4.1,3.6-8.5,3.6-13.4c0-4.8-1.2-9.2-3.7-13.3C102.4,10.6,99.2,7.3,95.1,4.9 M97.5,37.5
			c-1.6,2.9-3.8,5.1-6.5,6.8c-2.7,1.7-5.8,2.5-9.1,2.5c-3.4,0-6.4-0.8-9.3-2.5c-2.8-1.7-5-3.9-6.7-6.8c-1.6-2.8-2.4-6-2.4-9.4
			c0-3.4,0.8-6.6,2.4-9.4c1.6-2.9,3.8-5.2,6.6-6.8c2.8-1.7,5.8-2.5,9.2-2.5c3.3,0,6.4,0.8,9.1,2.5c2.8,1.7,5,4,6.6,6.8
			c1.6,2.9,2.4,6,2.4,9.4C99.9,31.5,99.1,34.6,97.5,37.5"/>
		<polygon class="st11" points="360.6,1.8 360.6,9.9 373.8,9.9 373.8,54.2 382.1,54.2 382.1,9.9 395.7,9.9 395.7,1.8 		"/>
		<path class="st11" d="M33.5,45.6c-2,0.8-4.3,1.2-6.9,1.2c-3.6,0-6.7-0.8-9.4-2.4c-2.7-1.6-4.8-3.8-6.3-6.7
			c-1.5-2.9-2.2-6.1-2.2-9.7c0-3.4,0.8-6.5,2.4-9.4c1.6-2.9,3.7-5.1,6.4-6.8c2.7-1.7,5.5-2.5,8.6-2.5c4,0,8,1.4,11.9,4.1l3.3-7.9
			c-2-1.2-4.3-2.3-7-3.1c-2.6-0.8-5.5-1.2-8.5-1.2c-5,0-9.4,1.2-13.4,3.5c-3.9,2.3-7,5.6-9.1,9.7C1.1,18.5,0,23.2,0,28.5
			c0,4.8,1.1,9.2,3.3,13.2c2.2,4,5.3,7.2,9.4,9.6c4.1,2.4,8.8,3.6,14.2,3.6c3.2,0,6.2-0.5,8.9-1.5c2.7-1,4.8-2.1,6.4-3.2l-3.5-7.5
			C37.2,43.8,35.5,44.8,33.5,45.6"/>
		<polygon class="st11" points="167.4,37.1 129.7,0 129.3,0 129.3,54.2 137.8,54.2 137.6,19.5 175.4,56.1 175.6,56.1 175.6,1.8 
			167.3,1.8 		"/>
		<polygon class="st11" points="345,1.8 334.9,1.8 323.8,20.7 311.5,1.8 300.8,1.8 317.3,27.2 300.1,54.2 310.4,54.2 322,34.4 
			334.9,54.2 345.7,54.2 328.4,27.7 		"/>
		<polygon class="st11" points="256.9,31.9 280.4,31.9 280.4,23.8 256.9,23.8 256.9,9.9 283.3,9.9 283.3,1.8 248.5,1.8 248.5,54.2 
			284.3,54.2 284.3,46.2 256.9,46.2 		"/>
		<polygon class="st11" points="194.6,9.9 207.7,9.9 207.7,54.2 216.1,54.2 216.1,9.9 229.6,9.9 229.6,1.8 194.6,1.8 		"/>
	</g>
	<linearGradient id="SVGID_10_" gradientUnits="userSpaceOnUse" x1="199.1512" y1="126.9581" x2="199.1512" y2="81.4537">
		<stop  offset="0" style="stop-color:#FFFFFF"/>
		<stop  offset="1" style="stop-color:#000000"/>
	</linearGradient>
	<rect x="-2.4" y="89.1" class="st12" width="403.1" height="61.3"/>
</g>
<g id="Layer_3">
	<defs>
		<filter id="Adobe_OpacityMaskFilter_1_" filterUnits="userSpaceOnUse" x="0" y="0" width="395.7" height="56.1">
			<feColorMatrix  type="matrix" values="1 0 0 0 0  0 1 0 0 0  0 0 1 0 0  0 0 0 1 0"/>
		</filter>
	</defs>
	<mask maskUnits="userSpaceOnUse" x="0" y="0" width="395.7" height="56.1" id="SVGID_11_">
		<g class="st13">
			<g>
				<rect x="-77.7" y="53.2" class="st9" width="531" height="0.5"/>
				<rect x="-77.7" y="2.2" class="st14" width="531" height="0.5"/>
				<rect x="-77.7" y="8.6" class="st15" width="531" height="0.5"/>
				<rect x="-77.7" y="15" class="st16" width="531" height="0.5"/>
				<rect x="-77.7" y="21.4" class="st17" width="531" height="0.5"/>
				<rect x="-77.7" y="27.7" class="st18" width="531" height="0.5"/>
				<rect x="-77.7" y="34.1" class="st9" width="531" height="0.5"/>
				<rect x="-77.7" y="40.5" class="st9" width="531" height="0.5"/>
				<rect x="-77.7" y="46.9" class="st9" width="531" height="0.5"/>
			</g>
		</g>
	</mask>
	<g class="st19">
		<path class="st11" d="M95.1,4.9c-4.1-2.4-8.6-3.7-13.4-3.7c-4.9,0-9.3,1.2-13.4,3.7c-4.1,2.5-7.4,5.7-9.8,9.8
			c-2.4,4.1-3.6,8.6-3.6,13.4c0,4.9,1.2,9.4,3.6,13.5c2.4,4.1,5.7,7.3,9.8,9.7c4.1,2.4,8.6,3.6,13.4,3.6c4.8,0,9.3-1.2,13.4-3.6
			c4.1-2.4,7.4-5.6,9.8-9.7c2.4-4.1,3.6-8.5,3.6-13.4c0-4.8-1.2-9.2-3.7-13.3C102.4,10.6,99.2,7.3,95.1,4.9z M97.5,37.5
			c-1.6,2.9-3.8,5.1-6.5,6.8c-2.7,1.7-5.8,2.5-9.1,2.5c-3.4,0-6.4-0.8-9.3-2.5c-2.8-1.7-5-3.9-6.7-6.8c-1.6-2.8-2.4-6-2.4-9.4
			c0-3.4,0.8-6.6,2.4-9.4c1.6-2.9,3.8-5.2,6.6-6.8c2.8-1.7,5.8-2.5,9.2-2.5c3.3,0,6.4,0.8,9.1,2.5c2.8,1.7,5,4,6.6,6.8
			c1.6,2.9,2.4,6,2.4,9.4C99.9,31.5,99.1,34.6,97.5,37.5z"/>
		<polygon class="st11" points="360.6,1.8 360.6,9.9 373.8,9.9 373.8,54.2 382.1,54.2 382.1,9.9 395.7,9.9 395.7,1.8 		"/>
		<path class="st11" d="M33.5,45.6c-2,0.8-4.3,1.2-6.9,1.2c-3.6,0-6.7-0.8-9.4-2.4c-2.7-1.6-4.8-3.8-6.3-6.7
			c-1.5-2.9-2.2-6.1-2.2-9.7c0-3.4,0.8-6.5,2.4-9.4c1.6-2.9,3.7-5.1,6.4-6.8c2.7-1.7,5.5-2.5,8.6-2.5c4,0,8,1.4,11.9,4.1l3.3-7.9
			c-2-1.2-4.3-2.3-7-3.1c-2.6-0.8-5.5-1.2-8.5-1.2c-5,0-9.5,1.2-13.4,3.5c-3.9,2.3-7,5.6-9.1,9.7C1.1,18.5,0,23.2,0,28.5
			c0,4.8,1.1,9.2,3.3,13.2c2.2,4,5.3,7.2,9.4,9.6c4.1,2.4,8.8,3.6,14.2,3.6c3.2,0,6.2-0.5,8.9-1.5c2.7-1,4.8-2.1,6.4-3.2l-3.5-7.5
			C37.2,43.8,35.5,44.8,33.5,45.6z"/>
		<polygon class="st11" points="167.4,37.1 129.7,0 129.3,0 129.3,54.2 137.8,54.2 137.6,19.5 175.4,56.1 175.6,56.1 175.6,1.8 
			167.3,1.8 		"/>
		<polygon class="st11" points="345,1.8 334.9,1.8 323.8,20.7 311.5,1.8 300.8,1.8 317.3,27.2 300.1,54.2 310.4,54.2 322,34.4 
			334.9,54.2 345.7,54.2 328.4,27.7 		"/>
		<polygon class="st11" points="256.9,31.9 280.4,31.9 280.4,23.8 256.9,23.8 256.9,9.9 283.3,9.9 283.3,1.8 248.5,1.8 248.5,54.2 
			284.3,54.2 284.3,46.2 256.9,46.2 		"/>
		<polygon class="st11" points="194.6,9.9 207.7,9.9 207.7,54.2 216.1,54.2 216.1,9.9 229.6,9.9 229.6,1.8 194.6,1.8 		"/>
	</g>
</g>
</svg>
